<mxfile host="app.diagrams.net" agent="Mozilla/5.0 (Windows NT 10.0; Win64; x64; rv:144.0) Gecko/20100101 Firefox/144.0" version="28.2.7">
  <diagram name="Fishbone Diagram" id="0">
    <mxGraphModel dx="843" dy="657" grid="1" gridSize="10" guides="1" tooltips="1" connect="1" arrows="1" fold="1" page="1" pageScale="1" pageWidth="1600" pageHeight="900" math="0" shadow="0">
      <root>
        <mxCell id="0" />
        <mxCell id="1" parent="0" />
        <mxCell id="spine" value="" style="endArrow=classic;html=1;strokeWidth=3;strokeColor=#000000;entryX=0;entryY=0.5;entryDx=0;entryDy=0;" parent="1" target="effect" edge="1">
          <mxGeometry width="50" height="50" relative="1" as="geometry">
            <mxPoint x="300" y="450" as="sourcePoint" />
            <mxPoint x="1400" y="450" as="targetPoint" />
          </mxGeometry>
        </mxCell>
        <mxCell id="effect" value="&lt;b&gt;KESULITAN MENENTUKAN&lt;br&gt;RUTE KOSAN TERDEKAT&lt;br&gt;KE POLBAN&lt;br&gt;BERDASARKAN JARAK&lt;/b&gt;" style="rounded=1;whiteSpace=wrap;html=1;fillColor=#fff2cc;strokeColor=#d6b656;fontSize=14;fontStyle=1" parent="1" vertex="1">
          <mxGeometry x="1150" y="390" width="240" height="120" as="geometry" />
        </mxCell>
        <mxCell id="bone1" value="" style="endArrow=none;html=1;strokeWidth=2;strokeColor=#000000;entryX=0.5;entryY=1;entryDx=0;entryDy=0;" parent="1" target="cat1" edge="1">
          <mxGeometry width="50" height="50" relative="1" as="geometry">
            <mxPoint x="300" y="450" as="sourcePoint" />
            <mxPoint x="200" y="250" as="targetPoint" />
          </mxGeometry>
        </mxCell>
        <mxCell id="cat1" value="&lt;b&gt;MANUSIA&lt;/b&gt;&lt;br&gt;(People)" style="rounded=0;whiteSpace=wrap;html=1;fillColor=#d5e8d4;strokeColor=#82b366;fontSize=12;fontStyle=1" parent="1" vertex="1">
          <mxGeometry x="140" y="200" width="120" height="40" as="geometry" />
        </mxCell>
        <mxCell id="m1" value="Kurangnya pengetahuan&lt;br&gt;mahasiswa baru tentang&lt;br&gt;wilayah sekitar Polban" style="rounded=0;whiteSpace=wrap;html=1;fillColor=#e1f5fe;align=left;fontSize=10;" parent="1" vertex="1">
          <mxGeometry x="270" y="240" width="140" height="50" as="geometry" />
        </mxCell>
        <mxCell id="m1line" value="" style="endArrow=none;html=1;strokeWidth=1;" parent="1" edge="1">
          <mxGeometry width="50" height="50" relative="1" as="geometry">
            <mxPoint x="270" y="285" as="sourcePoint" />
            <mxPoint x="230" y="310" as="targetPoint" />
          </mxGeometry>
        </mxCell>
        <mxCell id="m2" value="Subjektivitas dalam menilai&lt;br&gt;&#39;dekat&#39; atau &#39;jauh&#39;" style="rounded=0;whiteSpace=wrap;html=1;fillColor=#e1f5fe;align=left;fontSize=10;" parent="1" vertex="1">
          <mxGeometry x="280" y="310" width="140" height="40" as="geometry" />
        </mxCell>
        <mxCell id="m2line" value="" style="endArrow=none;html=1;strokeWidth=1;" parent="1" edge="1">
          <mxGeometry width="50" height="50" relative="1" as="geometry">
            <mxPoint x="280" y="340" as="sourcePoint" />
            <mxPoint x="250" y="350" as="targetPoint" />
          </mxGeometry>
        </mxCell>
        <mxCell id="m3" value="Ketergantungan pada&lt;br&gt;rekomendasi lisan" style="rounded=0;whiteSpace=wrap;html=1;fillColor=#e1f5fe;align=left;fontSize=10;" parent="1" vertex="1">
          <mxGeometry x="290" y="360" width="130" height="40" as="geometry" />
        </mxCell>
        <mxCell id="m3line" value="" style="endArrow=none;html=1;strokeWidth=1;" parent="1" edge="1">
          <mxGeometry width="50" height="50" relative="1" as="geometry">
            <mxPoint x="290" y="390" as="sourcePoint" />
            <mxPoint x="270" y="390" as="targetPoint" />
          </mxGeometry>
        </mxCell>
        <mxCell id="m4line" value="" style="endArrow=none;html=1;strokeWidth=1;" parent="1" edge="1">
          <mxGeometry width="50" height="50" relative="1" as="geometry">
            <mxPoint x="300" y="435" as="sourcePoint" />
            <mxPoint x="280" y="410" as="targetPoint" />
          </mxGeometry>
        </mxCell>
        <mxCell id="bone2" value="" style="endArrow=none;html=1;strokeWidth=2;strokeColor=#000000;entryX=0.5;entryY=1;entryDx=0;entryDy=0;" parent="1" target="cat2" edge="1">
          <mxGeometry width="50" height="50" relative="1" as="geometry">
            <mxPoint x="600" y="450" as="sourcePoint" />
            <mxPoint x="500" y="250" as="targetPoint" />
          </mxGeometry>
        </mxCell>
        <mxCell id="cat2" value="&lt;b&gt;METODE&lt;/b&gt;&lt;br&gt;(Methods)" style="rounded=0;whiteSpace=wrap;html=1;fillColor=#d5e8d4;strokeColor=#82b366;fontSize=12;fontStyle=1" parent="1" vertex="1">
          <mxGeometry x="440" y="200" width="120" height="40" as="geometry" />
        </mxCell>
        <mxCell id="mt1" value="Tidak ada standar baku&lt;br&gt;dalam mengukur jarak" style="rounded=0;whiteSpace=wrap;html=1;fillColor=#e1f5fe;align=left;fontSize=10;" parent="1" vertex="1">
          <mxGeometry x="570" y="240" width="130" height="40" as="geometry" />
        </mxCell>
        <mxCell id="mt1line" value="" style="endArrow=none;html=1;strokeWidth=1;" parent="1" edge="1">
          <mxGeometry width="50" height="50" relative="1" as="geometry">
            <mxPoint x="570" y="280" as="sourcePoint" />
            <mxPoint x="530" y="310" as="targetPoint" />
          </mxGeometry>
        </mxCell>
        <mxCell id="mt2" value="Penggunaan metode manual&lt;br&gt;(tanpa algoritma Dijkstra)" style="rounded=0;whiteSpace=wrap;html=1;fillColor=#e1f5fe;align=left;fontSize=10;" parent="1" vertex="1">
          <mxGeometry x="580" y="290" width="140" height="40" as="geometry" />
        </mxCell>
        <mxCell id="mt2line" value="" style="endArrow=none;html=1;strokeWidth=1;" parent="1" edge="1">
          <mxGeometry width="50" height="50" relative="1" as="geometry">
            <mxPoint x="580" y="330" as="sourcePoint" />
            <mxPoint x="550" y="350" as="targetPoint" />
          </mxGeometry>
        </mxCell>
        <mxCell id="bone3" value="" style="endArrow=none;html=1;strokeWidth=2;strokeColor=#000000;entryX=0.5;entryY=1;entryDx=0;entryDy=0;" parent="1" target="cat3" edge="1">
          <mxGeometry width="50" height="50" relative="1" as="geometry">
            <mxPoint x="900" y="450" as="sourcePoint" />
            <mxPoint x="800" y="250" as="targetPoint" />
          </mxGeometry>
        </mxCell>
        <mxCell id="cat3" value="&lt;b&gt;MESIN/ALAT&lt;/b&gt;&lt;br&gt;(Tools &amp;amp; Technology)" style="rounded=0;whiteSpace=wrap;html=1;fillColor=#d5e8d4;strokeColor=#82b366;fontSize=12;fontStyle=1" parent="1" vertex="1">
          <mxGeometry x="740" y="190" width="140" height="50" as="geometry" />
        </mxCell>
        <mxCell id="ms1" value="Keterbatasan akses perangkat&lt;br&gt;digital atau internet" style="rounded=0;whiteSpace=wrap;html=1;fillColor=#e1f5fe;align=left;fontSize=10;" parent="1" vertex="1">
          <mxGeometry x="900" y="250" width="140" height="40" as="geometry" />
        </mxCell>
        <mxCell id="ms1line" value="" style="endArrow=none;html=1;strokeWidth=1;exitX=0;exitY=0.5;exitDx=0;exitDy=0;" parent="1" source="ms1" edge="1">
          <mxGeometry width="50" height="50" relative="1" as="geometry">
            <mxPoint x="883" y="277" as="sourcePoint" />
            <mxPoint x="840" y="310" as="targetPoint" />
          </mxGeometry>
        </mxCell>
        <mxCell id="ms2" value="Tidak tersedia sistem digital&lt;br&gt;khusus rute kosan-Polban" style="rounded=0;whiteSpace=wrap;html=1;fillColor=#e1f5fe;align=left;fontSize=10;" parent="1" vertex="1">
          <mxGeometry x="910" y="300" width="140" height="40" as="geometry" />
        </mxCell>
        <mxCell id="ms2line" value="" style="endArrow=none;html=1;strokeWidth=1;exitX=0;exitY=0.5;exitDx=0;exitDy=0;" parent="1" source="ms2" edge="1">
          <mxGeometry width="50" height="50" relative="1" as="geometry">
            <mxPoint x="893" y="327" as="sourcePoint" />
            <mxPoint x="858" y="352" as="targetPoint" />
          </mxGeometry>
        </mxCell>
        <mxCell id="bone4" value="" style="endArrow=none;html=1;strokeWidth=2;strokeColor=#000000;entryX=0.5;entryY=0;entryDx=0;entryDy=0;" parent="1" target="cat4" edge="1">
          <mxGeometry width="50" height="50" relative="1" as="geometry">
            <mxPoint x="300" y="450" as="sourcePoint" />
            <mxPoint x="200" y="650" as="targetPoint" />
          </mxGeometry>
        </mxCell>
        <mxCell id="cat4" value="&lt;b&gt;LINGKUNGAN&lt;/b&gt;&lt;br&gt;(Environment)" style="rounded=0;whiteSpace=wrap;html=1;fillColor=#d5e8d4;strokeColor=#82b366;fontSize=12;fontStyle=1" parent="1" vertex="1">
          <mxGeometry x="140" y="660" width="120" height="40" as="geometry" />
        </mxCell>
        <mxCell id="ksLWQMlaSQ6lBy1Z-fE6-2" style="edgeStyle=orthogonalEdgeStyle;rounded=0;orthogonalLoop=1;jettySize=auto;html=1;exitX=0;exitY=0.5;exitDx=0;exitDy=0;endArrow=none;endFill=0;" parent="1" source="l1" edge="1">
          <mxGeometry relative="1" as="geometry">
            <mxPoint x="270" y="510.16666666666674" as="targetPoint" />
          </mxGeometry>
        </mxCell>
        <mxCell id="l1" value="Topografi berbukit dan&lt;br&gt;jalan berliku" style="rounded=0;whiteSpace=wrap;html=1;fillColor=#fff4e6;align=left;fontSize=10;" parent="1" vertex="1">
          <mxGeometry x="290" y="490" width="130" height="40" as="geometry" />
        </mxCell>
        <mxCell id="bone5" value="" style="endArrow=none;html=1;strokeWidth=2;strokeColor=#000000;entryX=0.5;entryY=0;entryDx=0;entryDy=0;" parent="1" target="cat5" edge="1">
          <mxGeometry width="50" height="50" relative="1" as="geometry">
            <mxPoint x="600" y="450" as="sourcePoint" />
            <mxPoint x="500" y="650" as="targetPoint" />
          </mxGeometry>
        </mxCell>
        <mxCell id="cat5" value="&lt;b&gt;DATA&lt;/b&gt;&lt;br&gt;(Materials/Information)" style="rounded=0;whiteSpace=wrap;html=1;fillColor=#d5e8d4;strokeColor=#82b366;fontSize=12;fontStyle=1" parent="1" vertex="1">
          <mxGeometry x="440" y="660" width="140" height="40" as="geometry" />
        </mxCell>
        <mxCell id="d2" value="Informasi jarak hanya&lt;br&gt;estimasi kasar" style="rounded=0;whiteSpace=wrap;html=1;fillColor=#fff4e6;align=left;fontSize=10;" parent="1" vertex="1">
          <mxGeometry x="630" y="515" width="130" height="40" as="geometry" />
        </mxCell>
        <mxCell id="d2line" value="" style="endArrow=none;html=1;strokeWidth=1;" parent="1" edge="1">
          <mxGeometry width="50" height="50" relative="1" as="geometry">
            <mxPoint x="630" y="540" as="sourcePoint" />
            <mxPoint x="560" y="545" as="targetPoint" />
          </mxGeometry>
        </mxCell>
        <mxCell id="d3" value="Duplikasi nama kosan&lt;br&gt;dengan lokasi berbeda" style="rounded=0;whiteSpace=wrap;html=1;fillColor=#fff4e6;align=left;fontSize=10;" parent="1" vertex="1">
          <mxGeometry x="640" y="565" width="130" height="40" as="geometry" />
        </mxCell>
        <mxCell id="d3line" value="" style="endArrow=none;html=1;strokeWidth=1;exitX=0;exitY=0.5;exitDx=0;exitDy=0;" parent="1" source="d3" edge="1">
          <mxGeometry width="50" height="50" relative="1" as="geometry">
            <mxPoint x="590" y="610" as="sourcePoint" />
            <mxPoint x="530" y="610" as="targetPoint" />
          </mxGeometry>
        </mxCell>
        <mxCell id="d4" value="Tidak ada dataset terpusat&lt;br&gt;kosan ke Polban" style="rounded=0;whiteSpace=wrap;html=1;fillColor=#fff4e6;align=left;fontSize=10;" parent="1" vertex="1">
          <mxGeometry x="650" y="615" width="130" height="40" as="geometry" />
        </mxCell>
        <mxCell id="d4line" value="" style="endArrow=none;html=1;strokeWidth=1;" parent="1" edge="1">
          <mxGeometry width="50" height="50" relative="1" as="geometry">
            <mxPoint x="650" y="640" as="sourcePoint" />
            <mxPoint x="520" y="630" as="targetPoint" />
          </mxGeometry>
        </mxCell>
        <mxCell id="bone6" value="" style="endArrow=none;html=1;strokeWidth=2;strokeColor=#000000;entryX=0.5;entryY=0;entryDx=0;entryDy=0;" parent="1" target="cat6" edge="1">
          <mxGeometry width="50" height="50" relative="1" as="geometry">
            <mxPoint x="900" y="450" as="sourcePoint" />
            <mxPoint x="800" y="650" as="targetPoint" />
          </mxGeometry>
        </mxCell>
        <mxCell id="cat6" value="&lt;b&gt;MANAJEMEN/&lt;br&gt;KEBIJAKAN&lt;/b&gt;&lt;br&gt;(Management)" style="rounded=0;whiteSpace=wrap;html=1;fillColor=#d5e8d4;strokeColor=#82b366;fontSize=12;fontStyle=1" parent="1" vertex="1">
          <mxGeometry x="740" y="660" width="140" height="50" as="geometry" />
        </mxCell>
        <mxCell id="mg1" value="Tidak ada panduan resmi&lt;br&gt;dari Polban" style="rounded=0;whiteSpace=wrap;html=1;fillColor=#fff4e6;align=left;fontSize=10;" parent="1" vertex="1">
          <mxGeometry x="910" y="490" width="130" height="40" as="geometry" />
        </mxCell>
        <mxCell id="mg1line" value="" style="endArrow=none;html=1;strokeWidth=1;exitX=0;exitY=0.5;exitDx=0;exitDy=0;" parent="1" source="mg1" edge="1">
          <mxGeometry width="50" height="50" relative="1" as="geometry">
            <mxPoint x="870" y="510" as="sourcePoint" />
            <mxPoint x="870" y="520" as="targetPoint" />
          </mxGeometry>
        </mxCell>
        <mxCell id="mg2" value="Pengelola kosan tidak&lt;br&gt;transparan soal jarak" style="rounded=0;whiteSpace=wrap;html=1;fillColor=#fff4e6;align=left;fontSize=10;" parent="1" vertex="1">
          <mxGeometry x="920" y="540" width="140" height="40" as="geometry" />
        </mxCell>
        <mxCell id="mg2line" value="" style="endArrow=none;html=1;strokeWidth=1;exitX=0;exitY=0.5;exitDx=0;exitDy=0;" parent="1" source="mg2" edge="1">
          <mxGeometry width="50" height="50" relative="1" as="geometry">
            <mxPoint x="880" y="560" as="sourcePoint" />
            <mxPoint x="860" y="540" as="targetPoint" />
          </mxGeometry>
        </mxCell>
        <mxCell id="mg3" value="Minimnya kolaborasi antara&lt;br&gt;kampus, pemilik kosan,&lt;br&gt;dan penyedia layanan peta" style="rounded=0;whiteSpace=wrap;html=1;fillColor=#fff4e6;align=left;fontSize=10;" parent="1" vertex="1">
          <mxGeometry x="930" y="590" width="150" height="60" as="geometry" />
        </mxCell>
        <mxCell id="mg3line" value="" style="endArrow=none;html=1;strokeWidth=1;exitX=0;exitY=0.5;exitDx=0;exitDy=0;" parent="1" source="mg3" edge="1">
          <mxGeometry width="50" height="50" relative="1" as="geometry">
            <mxPoint x="890" y="620" as="sourcePoint" />
            <mxPoint x="840" y="590" as="targetPoint" />
          </mxGeometry>
        </mxCell>
        <mxCell id="m4" value="Minimnya literasi&lt;br&gt;penggunaan aplikasi pemetaan" style="rounded=0;whiteSpace=wrap;html=1;fillColor=#e1f5fe;align=left;fontSize=10;" parent="1" vertex="1">
          <mxGeometry x="300" y="400" width="140" height="40" as="geometry" />
        </mxCell>
      </root>
    </mxGraphModel>
  </diagram>
</mxfile>
